<svg viewBox="0 0 80 70" fill="none" xmlns="http://www.w3.org/2000/svg">
  <!-- Left vertical bar of h -->
  <rect x="0" y="0" width="14" height="60" fill="#2D5A3D"/>

  <!-- Horizontal connector (lower part of h) -->
  <path d="M14 32 Q22 32 30 40 L30 60 L44 60 L44 45" fill="#2D5A3D"/>

  <!-- Cow head silhouette -->
  <path d="
    M44 45
    L44 60
    L58 60
    L58 48
    Q65 45 70 40
    Q75 34 72 28
    Q68 32 64 30
    Q60 28 58 24
    Q54 20 50 22
    Q46 24 44 30
    L44 45
  " fill="#2D5A3D"/>

  <!-- Left horn -->
  <path d="M50 22 Q46 14 40 10" stroke="#2D5A3D" stroke-width="4" stroke-linecap="round" fill="none"/>

  <!-- Right horn -->
  <path d="M64 30 Q68 22 74 18" stroke="#2D5A3D" stroke-width="4" stroke-linecap="round" fill="none"/>
</svg>
